<?xml version="1.0" encoding="UTF-8"?>
<svg id="Layer_1" data-name="Layer 1" xmlns="http://www.w3.org/2000/svg" viewBox="0 0 882 882">
  <defs>
    <style>
      .cls-1 {
        fill: #fff;
      }
    </style>
  </defs>
  <path class="cls-1" d="m0,0v882h882V0H0Zm377.68,812.08h-87.93v-308.3h-121.58v-71.65h331.1v71.65h-121.58v308.3Zm205.98-140.58c5.97,14.84,14.38,27.68,25.24,38.54,10.86,10.86,23.7,19.27,38.54,25.24,14.83,5.97,31.12,8.96,48.85,8.96,18.81,0,36.27-3.88,52.38-11.67,16.1-7.78,30.48-19.08,43.15-33.92l56.99,52.11c-18.1,22.08-40.53,38.9-67.3,50.48-26.78,11.58-56.81,17.37-90.1,17.37-29.31,0-56.54-4.8-81.69-14.38-25.15-9.58-46.95-23.25-65.41-40.98-18.45-17.72-32.84-38.54-43.15-62.42-10.31-23.88-15.47-50.11-15.47-78.7s5.16-54.82,15.47-78.7c10.31-23.88,24.78-44.69,43.42-62.42,18.63-17.73,40.52-31.39,65.68-40.98,25.15-9.58,52.38-14.38,81.69-14.38,32.92,0,62.78,5.7,89.56,17.1,26.77,11.4,49.21,28.14,67.3,50.21l-56.99,52.11c-12.67-14.83-27.05-26.05-43.15-33.65-16.1-7.6-33.57-11.4-52.38-11.4-17.73,0-34.02,2.99-48.85,8.96-14.84,5.97-27.68,14.38-38.54,25.24s-19.27,23.7-25.24,38.54c-5.97,14.84-8.96,31.3-8.96,49.39s2.99,34.56,8.96,49.39Z"/>
</svg>